<?xml version="1.0" standalone="no"?>
<svg xmlns:xlink="http://www.w3.org/1999/xlink" id="wave" style="transform:rotate(0deg); transition: 0.3s" viewBox="0 0 1440 270" version="1.1" xmlns="http://www.w3.org/2000/svg"><defs><linearGradient id="sw-gradient-0" x1="0" x2="0" y1="1" y2="0"><stop stop-color="rgba(243, 106, 62, 1)" offset="0%"/><stop stop-color="rgba(255, 179, 11, 1)" offset="100%"/></linearGradient></defs><path style="transform:translate(0, 0px); opacity:1" fill="url(#sw-gradient-0)" d="M0,189L26.7,157.5C53.3,126,107,63,160,72C213.3,81,267,162,320,180C373.3,198,427,153,480,117C533.3,81,587,54,640,63C693.3,72,747,117,800,117C853.3,117,907,72,960,85.5C1013.3,99,1067,171,1120,202.5C1173.3,234,1227,225,1280,184.5C1333.3,144,1387,72,1440,58.5C1493.3,45,1547,90,1600,99C1653.3,108,1707,81,1760,85.5C1813.3,90,1867,126,1920,157.5C1973.3,189,2027,216,2080,216C2133.3,216,2187,189,2240,153C2293.3,117,2347,72,2400,81C2453.3,90,2507,153,2560,180C2613.3,207,2667,198,2720,180C2773.3,162,2827,135,2880,144C2933.3,153,2987,198,3040,189C3093.3,180,3147,117,3200,76.5C3253.3,36,3307,18,3360,27C3413.3,36,3467,72,3520,108C3573.3,144,3627,180,3680,166.5C3733.3,153,3787,90,3813,58.5L3840,27L3840,270L3813.3,270C3786.7,270,3733,270,3680,270C3626.7,270,3573,270,3520,270C3466.7,270,3413,270,3360,270C3306.7,270,3253,270,3200,270C3146.7,270,3093,270,3040,270C2986.7,270,2933,270,2880,270C2826.7,270,2773,270,2720,270C2666.7,270,2613,270,2560,270C2506.7,270,2453,270,2400,270C2346.7,270,2293,270,2240,270C2186.7,270,2133,270,2080,270C2026.7,270,1973,270,1920,270C1866.7,270,1813,270,1760,270C1706.7,270,1653,270,1600,270C1546.7,270,1493,270,1440,270C1386.7,270,1333,270,1280,270C1226.7,270,1173,270,1120,270C1066.7,270,1013,270,960,270C906.7,270,853,270,800,270C746.7,270,693,270,640,270C586.7,270,533,270,480,270C426.7,270,373,270,320,270C266.7,270,213,270,160,270C106.7,270,53,270,27,270L0,270Z"/></svg>